<?xml version="1.0" encoding="UTF-8" standalone="no"?>
<!DOCTYPE svg PUBLIC "-//W3C//DTD SVG 1.1//EN" "http://www.w3.org/Graphics/SVG/1.1/DTD/svg11.dtd">
<svg xmlns="http://www.w3.org/2000/svg" version="1.1" viewBox="0,0 168.52,118.6" width="800" height="563.019">
  <defs> 
    <marker id="ArrowEnd" viewBox="0 0 10 10" refX="0" refY="5" markerUnits="strokeWidth" markerWidth="4" markerHeight="3" orient="auto"> 
      <path d="M 0 0 L 10 5 L 0 10 z"/> 
    </marker>
    <marker id="ArrowStart" viewBox="0 0 10 10" refX="10" refY="5" markerUnits="strokeWidth" markerWidth="4" markerHeight="3" orient="auto"> 
      <path d="M 10 0 L 0 5 L 10 10 z"/> 
    </marker>
  </defs>
  <g>
    <path style="stroke:#000000; stroke-width:1.1955199999999999; fill:none" d="M 155.024 11.003L 13.2933 92.831L 155.024 92.831"/>
    <path style="stroke:none; fill-rule:evenodd; fill:#000000" d="M 124.602 87.28L 126.672 92.827L 128.578 87.2209L 126.621       89.4789"/>
    <path style="stroke:none; fill-rule:evenodd; fill:#000000" d="M 115.942 40.042L 111.489 36.1429L 112.465 41.983L       113.117 39.0649"/>
    <path style="stroke:#000000; stroke-width:0.79701100000000002; fill:none" d="M 126.625 89.483L 126.625 89.581C 126.121 71.889 121.477       54.5569 113.071 38.9789"/>
    <path style="stroke:none; fill-rule:evenodd; fill:#000000" d="M 133.66 58.909C 133.254 58.92 132.961 59.249 132.961       59.577C 132.961 59.784 133.09 60.006 133.41 60.006C 133.731       60.006 134.082 59.756 134.082 59.1819C 134.082 58.5179       133.446 57.913 132.317 57.913C 130.36 57.913 129.809 59.448       129.809 60.112C 129.809 61.288 130.879 61.5099 131.301       61.6039C 132.055 61.753 132.809 61.917 132.809 62.749C       132.809 63.139 132.473 64.405 130.707 64.405C 130.504 64.405       129.371 64.405 129.032 63.506C 129.59 63.624 129.957 63.17       129.957 62.741C 129.957 62.3929 129.723 62.21 129.414 62.21C       129.032 62.21 128.594 62.53 128.594 63.2209C 128.594 64.092       129.442 64.706 130.723 64.706C 133.133 64.706 133.715 62.881       133.715 62.206C 133.715 61.663 133.442 61.288 133.266       61.108C 132.875 60.686 132.457 60.612 131.821 60.475C       131.301 60.358 130.719 60.253 130.719 59.573C 130.719 59.139       131.067 58.217 132.356 58.217C 132.719 58.217 133.45 58.323       133.668 58.917L 133.66 58.909z"/>
    <path style="stroke:#000000; stroke-width:0.79701100000000002; fill:none" d="M 35.9651 92.831C 35.9651 88.8539 34.9181 84.9399 32.9301       81.495"/>
    <path style="stroke:none; fill-rule:evenodd; fill:#000000" d="M 48.2111 81.674C 48.2111 80.6899 47.9421 78.612 46.4101       78.612C 44.3241 78.612 42.0161 82.823 42.0161 86.245C       42.0161 87.647 42.4501 89.3069 43.8171 89.3069C 45.9301       89.3069 48.2111 85.022 48.2111 81.674zM 43.6211 83.71C       43.8711 82.753 44.1721 81.553 44.7661 80.487C 45.1641 79.753       45.7151 78.913 46.3871 78.913C 47.1141 78.913 47.2031 79.87       47.2031 80.725C 47.2031 81.46 47.0861 82.225 46.7271 83.71L       43.6211 83.71zM 46.6101 84.21C 46.4461 84.897 46.1331 86.174       45.5631 87.253C 45.0391 88.272 44.4691 89.006 43.8241       89.006C 43.3321 89.006 43.0161 88.573 43.0161 87.178C       43.0161 86.549 43.1061 85.678 43.4921 84.21L 46.6101       84.21z"/>
    <path style="stroke:none; fill-rule:evenodd; fill:#000000" d="M 18.8676 99.909L 13.2894 101.897L 18.8676 103.885L       16.6371 101.897"/>
    <path style="stroke:none; fill-rule:evenodd; fill:#000000" d="M 121.098 103.893L 126.676 101.905L 121.098 99.917L       123.328 101.905"/>
    <path style="stroke:#000000; stroke-width:0.79701100000000002; fill:none" d="M 16.6371 101.901L 123.324 101.901"/>
    <path style="stroke:none; fill-rule:evenodd; fill:#000000" d="M 67.7271 113.456C 67.6841 113.678 67.5941 114.026       67.5941 114.1C 67.5941 114.37 67.8011 114.506 68.0281       114.506C 68.2031 114.506 68.4731 114.389 68.5781 114.085C       68.6061 114.026 69.1141 111.975 69.1761 111.706C 69.2931       111.21 69.5631 110.155 69.6531 109.749C 69.7111 109.553       70.1291 108.846 70.4891 108.514C 70.6061 108.413 71.0391       108.018 71.6841 108.018C 72.0711 108.018 72.2931 108.217       72.3091 108.217C 71.8481 108.288 71.5081 108.635 71.5081       109.01C 71.5081 109.241 71.6721 109.514 72.0781 109.514C       72.4811 109.514 72.9031 109.182 72.9031 108.659C 72.9031       108.151 72.4261 107.717 71.6681 107.717C 70.7001 107.717       70.0431 108.444 69.7621 108.862C 69.6451 108.194 69.1101       107.717 68.4071 107.717C 67.7231 107.717 67.4421 108.296       67.3051 108.565C 67.0391 109.069 66.8441 109.963 66.8441       110.01C 66.8441 110.159 66.9921 110.159 67.0241 110.159C       67.1721 110.159 67.1841 110.147 67.2781 109.811C 67.5321       108.741 67.8281 108.014 68.3671 108.014C 68.6211 108.014       68.8281 108.131 68.8281 108.706C 68.8281 109.022 68.7851       109.186 68.5901 109.971L 67.7271 113.456z"/>
  </g>
</svg>